<svg width="24" height="24" viewBox="0 0 24 24" fill="none" xmlns="http://www.w3.org/2000/svg">
<rect width="24" height="24" fill="white"/>
<path d="M21.0891 10.0708C19.0593 8.26308 16.5492 6.93351 14.8021 6.13728L13.3627 5.52916L13.1682 5.45361C11.6066 4.83718 10.3595 4.84927 9.4547 5.48836C9.07024 5.76697 8.76383 6.14004 8.56497 6.57166C8.24376 6.41226 7.93688 6.26949 7.65111 6.13728L6.21246 5.52916L6.01793 5.45361C5.25186 5.15144 4.56269 5.00035 3.95044 5.00035C3.31405 5.00035 2.76513 5.16302 2.30368 5.48836C1.06334 6.36467 1 8.10746 1 8.44816C1 8.48291 1 8.50558 1 8.51389C1 8.56072 1.27597 13.3487 1.54967 15.3884C1.75552 16.9181 2.3361 18.08 3.22885 18.7478C3.95119 19.2879 4.83564 19.4813 5.85657 19.3227C7.5071 19.0651 9.14556 18.5672 9.90635 18.3142C10.0508 18.474 10.2101 18.6197 10.3821 18.7493C11.1045 19.2894 11.9889 19.4828 13.0098 19.3242C15.2183 18.9797 17.4057 18.1993 17.4977 18.1661C20.7588 17.116 22.588 15.7396 22.9386 14.0747C23.2108 12.7745 22.5744 11.3913 21.0891 10.0708ZM5.67259 18.117C5.51198 18.1426 5.34964 18.1557 5.18701 18.1563C4.74579 18.1671 4.31356 18.0302 3.95873 17.7672C3.34195 17.3072 2.91518 16.4029 2.75684 15.2222C2.5133 13.4091 2.26523 9.28821 2.21772 8.48065V8.46252C2.20717 8.06969 2.32932 6.95542 3.01019 6.4795C3.69106 6.00357 4.78437 6.27175 5.57759 6.58526L5.59267 6.59055C5.64092 6.60868 5.89804 6.70537 6.29993 6.87459L7.74536 7.52804C9.25338 8.25477 11.4046 9.44232 13.1305 10.9796C13.8166 11.5893 14.634 12.5177 14.634 13.4779C14.634 13.5921 14.6221 13.706 14.5985 13.8178C14.2811 15.3219 11.9052 16.3802 9.96742 17.0035L9.9433 17.0118C9.92897 17.0193 7.79588 17.7861 5.67259 18.117ZM21.7488 13.8201C21.4314 15.3241 19.0555 16.3825 17.1177 17.0057L17.0943 17.0133C17.08 17.0193 14.9469 17.7861 12.8236 18.1162C12.1902 18.2152 11.6692 18.1298 11.2357 17.8556C13.9411 16.8494 15.4702 15.5765 15.7884 14.0716C16.0606 12.7745 15.4204 11.3913 13.9388 10.0678C12.5974 8.87347 11.0472 7.88839 9.64622 7.12766C9.75744 6.86944 9.93517 6.64549 10.1612 6.47874C10.8466 5.99828 11.9361 6.271 12.7294 6.5845L12.7437 6.58979C12.7927 6.60792 13.0491 6.70462 13.4517 6.87383L14.8964 7.52729C16.4044 8.25402 18.5556 9.44156 20.2823 10.9789C20.9677 11.5885 21.785 12.5169 21.785 13.4771C21.7849 13.5924 21.7728 13.7073 21.7488 13.8201Z" fill="#29ABE2"/>
</svg>
